<?xml version="1.0" encoding="utf-8"?><svg xmlns="http://www.w3.org/2000/svg" xmlns:xlink="http://www.w3.org/1999/xlink"><symbol viewBox="0 0 64 64" id="b" xmlns="http://www.w3.org/2000/svg"><path d="M49 17c0-9.374-7.626-17-17-17S15 7.626 15 17v15H7v32h50V32h-8V17zm-32 0c0-8.271 6.729-15 15-15s15 6.729 15 15v15H17V17zm38 45H9V34h46v28z"/><path d="M31 51.898V55h2v-3.102A5.007 5.007 0 0037 47c0-2.757-2.243-5-5-5s-5 2.243-5 5a5.007 5.007 0 004 4.898zM32 44c1.654 0 3 1.346 3 3s-1.346 3-3 3-3-1.346-3-3 1.346-3 3-3z"/></symbol><symbol viewBox="0 0 64 64" id="i" xmlns="http://www.w3.org/2000/svg"><path d="M32 64c8.547 0 16.583-3.329 22.627-9.374 6.045-6.044 9.374-14.079 9.374-22.626s-3.329-16.582-9.374-22.626C48.583 3.329 40.547 0 32 0 23.452 0 15.417 3.329 9.373 9.374 3.328 15.418-.001 23.453-.001 32s3.329 16.582 9.374 22.626C15.417 60.671 23.452 64 32 64zM10.787 10.788C16.453 5.121 23.986 2 32 2c8.013 0 15.547 3.121 21.213 8.788C58.88 16.454 62.001 23.987 62.001 32s-3.121 15.546-8.788 21.212C47.547 58.879 40.013 62 32 62c-8.014 0-15.547-3.121-21.213-8.788C5.12 47.546 1.999 40.013 1.999 32s3.121-15.546 8.788-21.212z"/><path d="M31 25h2v22h-2zm0-8h2v4h-2z"/></symbol><symbol viewBox="0 0 21 17" id="image" xmlns="http://www.w3.org/2000/svg"><path d="M20.51 14.13h-2.406v2.393a.478.478 0 01-.482.474H.469a.478.478 0 01-.482-.474V4.321c0-.261.216-.473.482-.473h2.407V1.455c0-.262.215-.474.481-.474H20.51c.266 0 .482.212.482.474v12.202a.478.478 0 01-.482.473zm-18.056.821c.03-.656.179-1.539.422-2.457V5.118H1.281v10.608H16.81V14.13h-1.438c.117.332.207.623.265.825l-13.183-.004zM19.698 2.252H4.169V12.86h15.529V2.252zM10.924 6.52c.77 1.085 1.441 2.043 2.006 2.646.93.914 1.725-.471 2.7-.927 1.422-.665 2.593 2.792 2.895 3.849l-13.183-.003c.083-1.801 1.042-5.299 2.437-6.588 1.249-1.145 2.311-.143 3.145 1.023zm4.645-.313c-.895 0-1.621-.713-1.621-1.592 0-.879.726-1.592 1.621-1.592s1.621.713 1.621 1.592c0 .879-.726 1.592-1.621 1.592z"/></symbol><symbol viewBox="0 0 29 40" id="leaf" xmlns="http://www.w3.org/2000/svg"><path d="M24.214.398s-3.253 3.129-6.77 4.391C-8.602 14.133 2.383 32.341 2.741 32.401c0 0 1.461-2.522 3.434-3.961C18.694 19.312 21.239 8.804 21.239 8.804S18.43 21.448 7.291 29.315c-2.46 1.737-4.125 6.013-4.83 10.286 0 0 1.743-.698 2.493-.887.293-1.893.904-3.705 1.938-5.324 15.567 1.838 20.665-10.602 21.331-14.941C29.794 8.204 24.214.398 24.214.398z"/></symbol><symbol viewBox="0 0 15 14" id="link" xmlns="http://www.w3.org/2000/svg"><path d="M12.967 6.202l-2.571 2.57a3.634 3.634 0 01-5.139 0 3.67 3.67 0 01-.552-.733L5.9 6.844c.056-.056.127-.089.194-.128.082.282.226.55.448.771a1.82 1.82 0 002.57 0l2.569-2.569a1.819 1.819 0 000-2.57 1.82 1.82 0 00-2.569 0l-.914.915A4.557 4.557 0 005.88 3.01l1.947-1.947a3.635 3.635 0 015.14 5.139zm-6.795 4.226l-.915.914a1.82 1.82 0 01-2.57 0 1.82 1.82 0 010-2.57l2.57-2.57a1.82 1.82 0 012.57 0c.221.222.365.489.449.77.067-.038.136-.071.193-.128l1.194-1.193a3.563 3.563 0 00-.551-.733 3.633 3.633 0 00-5.14 0L1.403 7.487a3.635 3.635 0 005.139 5.14L8.49 10.68a4.563 4.563 0 01-2.318-.252z"/></symbol><symbol viewBox="0 0 64 64" id="s" xmlns="http://www.w3.org/2000/svg"><path d="M32.001-.113c-8.579 0-16.644 3.34-22.709 9.406-6.066 6.066-9.405 14.13-9.404 22.708 0 8.578 3.34 16.585 9.404 22.651C15.357 60.717 23.421 64 31.999 64h.005c17.706 0 32.11-14.351 32.109-32.057.001-8.578-3.34-16.614-9.405-22.68C48.644 3.199 40.579-.113 32.001-.113zM32 62.113v1V62h-.002c-8.043 0-15.605-3.076-21.292-8.762C5.02 47.55 1.888 40.017 1.888 31.973c-.001-8.044 3.13-15.592 8.818-21.28 5.688-5.688 13.25-8.812 21.295-8.812 8.044 0 15.605 3.136 21.293 8.823 5.688 5.688 8.817 13.251 8.817 21.295C62.112 48.601 49 62.112 32 62.113z"/><path d="M32 9a22.845 22.845 0 00-16.263 6.738A22.848 22.848 0 009 32h2a20.867 20.867 0 016.151-14.849C21.117 13.185 26.391 11 32 11s10.883 2.185 14.85 6.152A20.868 20.868 0 0153 32h2c0-6.142-2.393-11.918-6.736-16.263S38.144 9 32 9z"/><path d="M30.757 32.293l-6-6.947-1.514 1.308 6.072 7.032c-.2.409-.317.857-.315 1.327.004.801.318 1.553.888 2.117A2.98 2.98 0 0032 38a2.98 2.98 0 002.131-.888 3.005 3.005 0 00-.019-4.242c-.879-.871-2.255-1.057-3.355-.577zm1.953 3.411a1.026 1.026 0 01-1.414.006.996.996 0 01-.005-1.414A.983.983 0 0132 34a1 1 0 01.71 1.704z"/></symbol><symbol viewBox="0 0 15 15" id="search" xmlns="http://www.w3.org/2000/svg"><path d="M13.977 12.501l-2.794-2.794a5.583 5.583 0 001.01-3.251c0-.777-.151-1.519-.452-2.228a5.742 5.742 0 00-1.222-1.833 5.75 5.75 0 00-1.833-1.223A5.647 5.647 0 006.457.72c-.777 0-1.519.151-2.228.452a5.729 5.729 0 00-1.833 1.223 5.729 5.729 0 00-1.223 1.833 5.642 5.642 0 00-.452 2.228c0 .777.151 1.52.452 2.229a5.75 5.75 0 001.223 1.833c.513.513 1.124.92 1.833 1.222a5.624 5.624 0 002.228.452 5.575 5.575 0 003.251-1.01l2.794 2.786a.97.97 0 00.734.309c.282 0 .527-.103.733-.309.206-.206.309-.451.309-.733a.995.995 0 00-.301-.734zM9.036 9.035c-.715.714-1.574 1.071-2.579 1.071-1.005 0-1.864-.357-2.578-1.071-.715-.715-1.072-1.574-1.072-2.579 0-1.005.357-1.864 1.072-2.578.714-.715 1.573-1.072 2.578-1.072s1.864.357 2.579 1.072c.714.714 1.071 1.573 1.071 2.578S9.75 8.32 9.036 9.035z"/></symbol><symbol viewBox="0 0 64 64" id="v" xmlns="http://www.w3.org/2000/svg"><path d="M62 56H0V14h62v12h-2V16H2v38h58V44h2z"/><path d="M55 15h-2v-5H6V8h49zM2 14H0c0-3.309 2.691-6 6-6v2c-2.206 0-4 1.794-4 4zm62 31H43.125c-5.514 0-10-4.486-10-10s4.486-10 10-10H64v20zM43.125 27c-4.411 0-8 3.589-8 8s3.589 8 8 8H62V27H43.125z"/><path d="M44 39c-2.206 0-4-1.794-4-4s1.794-4 4-4 4 1.794 4 4-1.794 4-4 4zm0-6c-1.103 0-2 .897-2 2s.897 2 2 2 2-.897 2-2-.897-2-2-2z"/></symbol></svg>